# xmcd CD database file
#
# Track frame offsets:
#	150
#	17530
#	32814
#	54869
#	69351
#	85419
#	98710
#	116083
#	132687
#	153940
#
# Disc length: 2248 seconds
#
# Revision: 2
# Processed by: cddbd v1.5.2PL0 Copyright (c) Steve Scherf et al.
# Submitted via: CDex 1.51
#
DISCID=7b08c60a
DTITLE=???? ????????? ???? ??? - ?????
DYEAR=2006
DGENRE=isreali/hebrow
TTITLE0=walking tour
TTITLE1=souvenir
TTITLE2=short break
TTITLE3=something good
TTITLE4=eleven meters
TTITLE5=high heels
TTITLE6=maybe you don't know
TTITLE7=let it not be over
TTITLE8=lion in the winter
TTITLE9=אף אחד לא מזיל דמעה
EXTD=YEAR: 2006
EXTT0=
EXTT1=
EXTT2=
EXTT3=
EXTT4=
EXTT5=
EXTT6=
EXTT7=
EXTT8=
EXTT9=
PLAYORDER=
